<?xml version="1.0" encoding="utf-8"?>
<!-- Generator: Adobe Illustrator 16.0.4, SVG Export Plug-In . SVG Version: 6.00 Build 0)  -->
<!DOCTYPE svg PUBLIC "-//W3C//DTD SVG 1.1//EN" "http://www.w3.org/Graphics/SVG/1.1/DTD/svg11.dtd">
<svg version="1.1" id="レイヤー_1" xmlns="http://www.w3.org/2000/svg" xmlns:xlink="http://www.w3.org/1999/xlink" x="0px"
	 y="0px" width="370px" height="39px" viewBox="0 0 370 39" style="enable-background:new 0 0 370 39;" xml:space="preserve">
<g>
	<path d="M6.404,19.826c-0.18,0.072-0.396-0.252-0.252-0.36c4.211-2.628,8.063-6.335,10.799-10.259
		c1.439-2.088,2.556-4.211,3.275-6.299c5.04,1.584,5.04,1.584,5.04,2.016c0,0.324-0.252,0.504-1.548,0.828
		c2.231,3.06,4.787,5.363,7.667,7.055c2.627,1.548,5.543,2.556,8.891,3.131c0.18,0.036,0.18,0.432,0,0.468
		c-1.224,0.18-1.979,1.044-2.52,3.023c-0.144,0.468-0.324,0.648-0.612,0.648c-0.216,0-0.72-0.216-1.332-0.54
		c-1.512-0.828-3.852-2.483-5.399-3.852c-2.952-2.627-4.787-5.039-7.199-9.359C19.434,12.734,14.071,16.946,6.404,19.826z
		 M20.478,26.053h-6.443c-0.684,0-1.332,0.072-2.231,0.216l-0.396-1.332c1.044,0.216,1.836,0.288,2.627,0.288h6.443V18.53h-5.04
		c-0.684,0-1.368,0.072-2.304,0.216l-0.396-1.332c1.08,0.216,1.872,0.288,2.699,0.288h11.303c1.548-2.052,1.98-2.34,2.232-2.34
		c0.324,0,0.684,0.288,2.231,1.62c0.684,0.612,0.972,0.936,0.972,1.188s-0.108,0.36-0.468,0.36h-7.703v6.695h4.643
		c1.656-2.16,2.088-2.448,2.34-2.448c0.324,0,0.684,0.288,2.375,1.728c0.72,0.612,1.008,0.936,1.008,1.188s-0.108,0.36-0.468,0.36
		h-9.898v7.595h8.819c1.872-2.34,2.304-2.628,2.556-2.628c0.324,0,0.684,0.288,2.448,1.836c0.756,0.684,1.043,1.008,1.043,1.26
		s-0.108,0.36-0.468,0.36H9.823c-0.792,0-1.548,0.072-2.591,0.216L6.836,33.36c1.152,0.216,2.052,0.288,2.916,0.288h10.727V26.053z"
		/>
	<path d="M51.475,31.848v1.656c0,1.044-0.72,1.44-2.16,1.44c-1.116,0-1.548-0.324-1.548-1.188c0-2.952,0.216-5.939,0.216-17.818
		c0-3.887-0.036-7.775-0.18-11.663c1.979,0.792,2.268,0.936,4.175,2.052h13.93c1.512-1.62,1.8-1.835,2.088-1.835
		c0.36,0,0.648,0.216,2.124,1.44c0.648,0.576,0.864,0.828,0.864,1.116c0,0.36-0.252,0.612-1.08,1.152v4.104
		c0,10.871,0.216,18.357,0.216,20.841c0,1.044-0.792,1.476-2.231,1.476c-1.152,0-1.548-0.36-1.548-1.188v-1.584H51.475z
		 M66.341,7.155H51.475V18.35h14.866V7.155z M66.341,19.178H51.475V31.02h14.866V19.178z"/>
	<path d="M92.766,26.917c0.072-3.708,0.18-7.416,0.18-11.123c-3.527,6.047-9.143,11.231-14.722,13.75
		c-0.18,0.072-0.396-0.252-0.252-0.36c5.543-4.176,10.439-10.835,13.103-17.386h-8.279c-0.936,0-1.872,0.072-3.096,0.216
		l-0.396-1.332c1.368,0.216,2.375,0.288,3.419,0.288H92.73v-3.06c0-2.484-0.072-3.779-0.216-5.003
		c3.671,0.288,4.751,0.54,4.751,1.08c0,0.324-0.288,0.612-1.116,1.044v5.939h8.459c1.692-2.196,2.124-2.483,2.376-2.483
		c0.324,0,0.72,0.288,2.591,1.728c0.828,0.684,1.116,0.972,1.116,1.224s-0.108,0.36-0.468,0.36h-13.75
		c1.44,3.383,3.348,5.687,5.579,7.847c2.448,2.34,6.155,4.355,10.115,5.615c0.18,0.072,0.18,0.288,0,0.36
		c-1.368,0.432-1.979,1.044-2.664,2.771c-0.18,0.504-0.36,0.684-0.648,0.684c-0.252,0-0.864-0.252-1.62-0.756
		c-2.736-1.836-5.147-4.176-7.019-6.875c-1.62-2.339-2.952-4.931-4.248-8.639c0.072,3.348,0.18,10.871,0.288,14.11h1.835
		c1.512-1.98,1.944-2.268,2.196-2.268c0.324,0,0.684,0.288,2.232,1.584c0.648,0.576,0.936,0.9,0.936,1.152s-0.108,0.36-0.468,0.36
		h-6.731c0.072,3.275,0.108,5.688,0.108,6.767c0,1.044-0.792,1.476-2.196,1.476c-1.152,0-1.584-0.324-1.584-1.224
		c0-0.72,0.072-3.491,0.144-7.019h-4.104c-0.792,0-1.583,0.072-2.664,0.216l-0.396-1.332c1.152,0.216,1.98,0.288,2.844,0.288H92.766
		z"/>
	<path d="M138.845,15.542c0.612-0.072,0.864-0.252,1.368-0.54c0.252-0.144,0.684-0.288,1.368-0.288c0.684,0,1.728,0.324,2.7,0.864
		c0.684,0.36,1.043,1.008,1.043,1.476c0,0.684-0.468,1.043-1.116,1.043c-0.396,0-0.684,0-1.512-0.108
		c-1.728-0.216-2.88-0.288-3.744-0.288c-0.828,0-3.348,0.072-5.363,0.216c-0.324,4.14-1.404,7.343-2.916,9.863
		c-1.872,3.131-4.428,5.327-7.919,6.767c-0.54,0.216-0.72,0.288-0.9,0.288c-0.288,0-0.396-0.072-0.396-0.252
		c0-0.252,0.144-0.324,0.9-0.9c2.879-2.196,4.392-4.211,5.759-6.875c1.332-2.627,1.979-5.363,2.16-8.711
		c-4.175,0.504-6.371,0.828-7.811,1.224c-0.504,0.144-0.9,0.252-1.224,0.504c-0.36,0.288-0.792,0.36-1.08,0.36
		c-0.612,0-1.512-0.54-2.556-1.62c-0.756-0.792-0.936-1.404-0.936-2.088c0-0.432,0.108-0.684,0.324-0.684
		c0.144,0,0.324,0.144,0.684,0.432c0.756,0.612,1.368,1.008,2.304,1.008c0.252,0,1.188-0.036,2.016-0.144
		c1.979-0.216,4.535-0.468,8.387-0.9c0.036-0.828,0.036-1.332,0.036-1.908c0-0.576-0.072-1.008-0.504-1.26
		c-0.324-0.18-0.792-0.324-1.224-0.36c-0.324-0.036-0.432-0.108-0.432-0.216c0-0.18,0.108-0.324,0.396-0.54
		c0.468-0.324,1.044-0.432,1.548-0.432c1.008,0,2.483,0.216,3.312,0.684c0.612,0.324,0.792,0.72,0.792,1.152
		c0,0.288-0.108,0.54-0.288,0.828c-0.18,0.288-0.252,0.54-0.288,0.756c-0.036,0.324-0.036,0.504-0.072,1.152
		C136.757,15.794,137.837,15.686,138.845,15.542z M136.901,5.679c1.188,0.792,1.692,1.404,1.692,2.088
		c0,0.612-0.324,1.044-1.296,1.152c-0.288,0.036-0.648,0.108-1.008,0.216c-2.16,0.648-4.715,1.404-7.811,2.124
		c-3.383,0.792-6.551,1.188-7.991,1.224c-0.432,0-0.648-0.072-0.648-0.324c0-0.216,0.144-0.252,0.612-0.396
		c3.06-0.792,5.435-1.548,7.271-2.268c2.52-0.936,4.175-1.8,5.543-2.592c0.576-0.324,0.756-0.576,0.756-0.756
		c0-0.216-0.54-0.612-1.044-0.9c-0.216-0.108-0.36-0.18-0.36-0.324c0-0.18,0.54-0.468,1.044-0.468
		C134.489,4.456,135.929,5.032,136.901,5.679z"/>
	<path d="M172.577,16.19c0.612-0.18,0.792-0.288,1.116-0.648c0.252-0.252,0.54-0.432,0.972-0.432c0.504,0,1.224,0.288,2.52,1.224
		c0.792,0.576,1.116,1.044,1.116,1.548c0,0.468-0.216,0.792-1.044,0.936c-0.252,0.036-0.504,0.072-0.828,0.36
		c-1.8,1.692-3.42,3.023-5.436,4.392c-0.468,0.324-0.828,0.54-1.08,0.54c-0.144,0-0.252-0.072-0.252-0.216s0.108-0.36,0.468-0.756
		c1.404-1.764,2.556-3.527,3.635-5.399c0.072-0.144,0.036-0.216-0.144-0.18c-2.16,0.612-4.751,1.439-6.875,2.087
		c0.252,1.116,0.468,2.268,0.828,3.636c0.576,2.16,1.152,4.355,1.764,6.623c0.216,0.756,0.468,1.836,0.468,2.232
		c0,0.684-0.756,1.116-1.476,1.116c-0.648,0-1.152-0.18-1.296-0.828c-0.648-2.987-1.296-6.011-1.944-8.999
		c-0.216-0.972-0.468-2.052-0.72-3.132c-2.736,0.9-3.888,1.368-4.788,1.8c-0.396,0.216-0.648,0.324-0.792,0.504
		c-0.252,0.252-0.504,0.396-0.864,0.432c-0.54,0.036-1.152-0.288-1.908-1.08c-1.008-1.008-1.152-1.439-1.152-2.16
		c0-0.396,0.216-0.684,0.36-0.684c0.108,0,0.252,0.144,0.468,0.324c0.54,0.504,1.188,0.828,1.764,0.828
		c0.396,0,0.864-0.036,1.332-0.144c1.583-0.396,3.419-0.9,5.183-1.404c-0.432-1.728-0.684-2.7-0.972-3.816
		c-0.108-0.432-0.216-0.684-0.36-1.043c-0.144-0.36-0.396-0.54-0.648-0.612c-0.324-0.108-0.756-0.144-1.188-0.144
		c-0.216,0-0.36-0.036-0.36-0.216c0-0.216,0.216-0.54,0.54-0.792c0.396-0.324,0.9-0.468,1.224-0.468
		c0.828-0.036,1.728,0.252,2.52,0.54c1.08,0.396,1.404,0.792,1.404,1.188c0,0.324-0.072,0.54-0.18,0.756
		c-0.108,0.216-0.144,0.36-0.18,0.54c-0.036,0.144-0.036,0.288,0.036,0.684c0.108,0.648,0.216,1.26,0.504,2.808
		C169.085,17.378,171.173,16.622,172.577,16.19z"/>
	<path d="M209.621,14.247c0.828-0.108,1.224-0.324,1.619-0.54c0.396-0.18,0.828-0.288,1.225-0.288c0.863,0,2.016,0.324,2.987,0.9
		c0.647,0.396,0.937,0.792,0.937,1.404s-0.433,1.116-1.045,1.116c-0.467,0-1.08-0.072-1.799-0.18
		c-0.793-0.108-1.801-0.216-2.412-0.216c-1.368,0-3.888,0.036-6.983,0.18c0,2.808,0.036,5.003,0.072,6.731
		c0.071,3.6,0.18,5.255,0.18,6.587c0,0.792-0.18,1.656-0.504,2.268c-0.575,1.008-1.151,1.476-2.231,1.476
		c-0.54,0-0.936-0.216-1.116-1.044c-0.144-0.684-0.396-1.08-0.792-1.368c-0.396-0.324-1.655-1.08-2.771-1.584
		c-0.648-0.288-0.791-0.396-0.791-0.648c0-0.144,0.143-0.18,0.359-0.18c0.287,0,0.504,0.072,0.863,0.108
		c1.045,0.144,2.196,0.288,3.275,0.288c0.541,0,0.541-0.36,0.541-0.828c0.035-0.9,0.072-2.088,0.072-4.751
		c0-2.268,0.035-4.607,0.035-6.875c-2.195,0.252-4.067,0.54-6.768,0.972c-0.647,0.108-1.151,0.252-1.475,0.468
		c-0.433,0.288-0.793,0.432-1.297,0.432s-1.26-0.324-2.268-1.584c-0.684-0.828-0.936-1.296-0.936-1.979
		c0-0.396,0.145-1.044,0.396-1.044c0.215,0,0.539,0.36,1.079,0.828c0.828,0.756,1.403,0.864,2.159,0.864
		c0.433,0,1.009-0.036,1.477-0.072c1.764-0.144,4.644-0.432,7.596-0.72c0-1.836,0-3.528,0-4.284c0-0.432,0-0.864-0.145-1.152
		c-0.18-0.396-0.324-0.648-0.936-0.792c-0.324-0.072-0.721-0.144-1.045-0.216c-0.359-0.072-0.467-0.144-0.467-0.324
		c0-0.324,0.432-0.72,1.079-1.008c0.647-0.288,1.188-0.36,1.655-0.36c0.613,0,2.088,0.612,3.096,1.368
		c0.648,0.504,0.721,0.864,0.721,1.26c0,0.36-0.252,0.792-0.504,1.044c-0.396,0.396-0.469,0.54-0.504,1.368
		c-0.036,0.792-0.072,1.584-0.108,2.88C205.985,14.606,207.785,14.462,209.621,14.247z M195.223,20.366
		c0.252,0,0.288,0.288,0.324,0.684c0.107,1.476,0.072,2.772-0.288,4.032c-0.36,1.296-1.116,2.34-1.655,2.844
		c-0.828,0.72-1.512,0.936-2.125,0.936c-1.079,0-1.764-0.612-1.764-1.691c0-0.756,0.217-1.332,1.44-1.944
		c0.937-0.468,1.655-0.972,2.196-1.584c0.647-0.72,1.115-1.62,1.439-2.7C194.898,20.582,195.007,20.366,195.223,20.366z
		 M208.289,20.797c0-0.216,0.145-0.288,0.432-0.288c0.108,0,0.288,0.036,0.504,0.072c1.584,0.324,3.275,1.152,4.607,2.16
		c1.008,0.792,2.053,1.872,2.053,3.24c0,1.26-0.504,2.231-1.729,2.231c-0.972,0-1.439-0.612-1.871-1.62
		c-0.396-0.936-1.152-2.304-1.873-3.384c-0.611-0.899-1.331-1.547-1.727-1.872C208.434,21.122,208.289,20.978,208.289,20.797z
		 M212.608,7.479c0.972,0.756,1.332,1.404,1.332,2.16c0,0.576-0.396,1.26-1.188,1.26c-0.396,0-0.827-0.108-1.223-0.828
		c-0.756-1.368-1.332-2.196-2.269-3.167c-0.144-0.144-0.396-0.324-0.396-0.468c0-0.216,0.18-0.252,0.432-0.252
		c0.324,0,0.721,0.108,0.828,0.144C211.169,6.615,211.853,6.903,212.608,7.479z M215.956,4.959c0.756,0.432,1.296,1.044,1.296,1.836
		s-0.504,1.332-1.115,1.332c-0.541,0-0.937-0.144-1.332-0.792c-0.756-1.26-1.512-2.052-2.52-2.808
		c-0.145-0.108-0.433-0.288-0.433-0.432c0-0.18,0.144-0.288,0.288-0.288c0.216,0,0.611,0.036,0.936,0.108
		C214.12,4.096,215.02,4.419,215.956,4.959z"/>
	<path d="M226.184,16.55c-1.26,1.62-2.592,3.023-4.104,4.319c-0.145,0.108-0.469-0.216-0.36-0.36
		c2.268-2.988,4.392-7.559,5.688-11.987c0.576-2.016,1.008-3.996,1.188-5.795c3.24,0.9,4.752,1.512,4.752,1.979
		c0,0.396-0.36,0.648-1.26,0.828c-1.188,3.204-2.556,6.011-4.104,8.458c2.052,0.324,2.375,0.432,2.375,0.828
		c0,0.324-0.252,0.504-0.972,0.828v18.682c0,1.043-0.611,1.512-1.871,1.512c-0.792,0-1.548-0.324-1.548-1.404
		c0-0.936,0.216-3.744,0.216-9.431V16.55z M244.325,27.637c0,2.304,0.18,5.363,0.18,6.623c0,0.972-0.647,1.368-1.943,1.368
		c-1.044,0-1.44-0.324-1.44-1.152c0-1.043,0.072-5.255,0.145-9.539c-2.988,3.815-6.587,6.335-10.655,7.847
		c-0.18,0.072-0.359-0.252-0.216-0.36c4.319-3.312,7.271-6.659,9.647-11.086h-6.119c-0.757,0-1.548,0.072-2.556,0.216l-0.396-1.332
		c1.224,0.216,2.124,0.288,3.023,0.288h7.235v-2.232c0-1.008-0.036-1.512-0.108-2.664c3.636,0.324,4.14,0.432,4.14,1.044
		c0,0.288-0.18,0.432-0.936,0.792v3.06h5.759c1.477-1.836,1.908-2.124,2.16-2.124c0.324,0,0.684,0.288,2.124,1.476
		c0.611,0.54,0.899,0.864,0.899,1.116s-0.107,0.36-0.468,0.36h-10.331c1.44,2.268,3.204,4.104,5.184,5.399s4.176,2.124,6.587,2.412
		c0.181,0.036,0.181,0.324,0,0.396c-1.008,0.432-1.439,1.008-2.052,2.412c-0.288,0.72-0.396,0.9-0.684,0.9
		c-0.216,0-0.647-0.216-1.224-0.576c-1.08-0.684-2.556-1.908-3.527-2.952c-1.872-1.944-3.204-4.14-4.428-6.911V27.637z
		 M237.702,14.822v0.72c0,0.864-0.685,1.224-1.908,1.224c-1.008,0-1.403-0.252-1.403-1.008c0-1.332,0.107-2.664,0.107-7.991
		c0-1.332-0.036-2.7-0.071-4.067c1.691,0.72,1.943,0.828,3.563,1.728h9.935c1.115-1.224,1.403-1.439,1.691-1.439
		c0.36,0,0.648,0.216,1.836,1.116c0.54,0.468,0.756,0.72,0.756,1.008s-0.288,0.54-0.864,0.972v1.368
		c0,3.563,0.145,6.047,0.145,6.839c0,0.936-0.684,1.332-2.052,1.332c-0.864,0-1.26-0.252-1.26-0.864v-0.936H237.702z M248.177,6.255
		h-10.475v7.739h10.475V6.255z"/>
	<path d="M272.406,9.099c-1.548,3.275-3.42,6.299-5.796,9.035v3.492c0,7.991,0.181,11.951,0.181,12.778
		c0,1.152-0.612,1.584-1.98,1.584c-1.079,0-1.476-0.324-1.476-1.224c0-1.404,0.145-5.579,0.181-13.642
		c-1.584,1.296-3.312,2.412-5.184,3.312c-0.145,0.072-0.468-0.324-0.324-0.432c1.908-1.512,3.815-3.456,5.508-5.687
		c0-1.224-0.036-2.376-0.145-4.211c1.008,0.432,1.764,0.792,2.34,1.08c1.224-1.944,2.304-3.959,3.168-6.083h-6.768
		c-0.792,0-1.584,0.072-2.664,0.216l-0.396-1.332c1.188,0.216,2.088,0.288,2.987,0.288h7.163c0.756-1.908,1.296-3.815,1.584-5.615
		c3.636,0.9,4.607,1.332,4.607,1.836c0,0.468-0.324,0.684-1.512,1.008c-0.36,0.972-0.72,1.872-1.116,2.771h12.203
		c1.871-2.16,2.304-2.448,2.556-2.448c0.323,0,0.72,0.288,2.52,1.728c0.792,0.612,1.08,0.936,1.08,1.188s-0.108,0.36-0.468,0.36
		H272.406z M280.685,27.529c0,0.936,0.145,3.779,0.145,4.967c0,1.476-0.504,2.196-1.764,2.808c-0.685,0.324-1.332,0.468-2.052,0.468
		c-0.685,0-0.9-0.18-1.044-1.044c-0.216-1.224-1.116-1.691-3.852-2.339c-0.18-0.036-0.18-0.54,0-0.54
		c1.548,0.144,3.527,0.252,4.823,0.252c0.396,0,0.504-0.108,0.504-0.468v-8.315h-6.839c-0.756,0-1.548,0.072-2.556,0.216
		l-0.396-1.332c1.116,0.216,1.98,0.288,2.808,0.288h6.983v-0.576c0-1.512-0.036-1.98-0.144-3.276
		c1.079,0.108,1.943,0.216,2.556,0.324c1.512-1.548,2.231-2.448,3.348-4.176h-9.791c-0.612,0-1.26,0.072-2.088,0.288l-0.396-1.404
		c0.936,0.216,1.619,0.288,2.339,0.288h9.936c1.476-1.44,1.764-1.656,2.052-1.656c0.359,0,0.611,0.072,2.195,1.548
		c0.72,0.648,0.9,0.972,0.9,1.26c0,0.504-0.253,0.648-1.872,0.828c-1.548,1.188-3.492,2.304-5.508,3.24
		c0.612,0.144,0.828,0.324,0.828,0.54c0,0.324-0.252,0.54-1.116,0.864v1.908h5.22c1.62-2.16,2.052-2.448,2.304-2.448
		c0.324,0,0.72,0.288,2.448,1.728c0.756,0.612,1.043,0.936,1.043,1.188s-0.107,0.36-0.468,0.36h-10.547V27.529z"/>
	<path d="M301.459,15.974c0,12.995,0.18,15.73,0.18,18.682c0,0.936-0.684,1.368-1.979,1.368c-1.08,0-1.62-0.252-1.62-1.116
		c0-1.8,0.216-6.551,0.252-20.805h-1.512c-0.647,0-1.332,0.072-2.195,0.216l-0.396-1.332c0.973,0.216,1.692,0.288,2.412,0.288h1.691
		V11.69c0-5.075-0.107-6.947-0.323-8.71c3.887,0.252,4.679,0.432,4.679,1.008c0,0.36-0.107,0.432-1.188,0.972v8.315h0.684
		c1.152-1.8,1.584-2.088,1.836-2.088c0.324,0,0.684,0.288,1.908,1.476c0.54,0.54,0.827,0.828,0.827,1.08s-0.107,0.36-0.468,0.36
		h-4.787V15.974z M318.053,22.093c0.036-0.72,0.072-1.44,0.072-2.196c0-0.936-0.036-1.296-0.145-2.231
		c3.563,0.36,4.248,0.54,4.248,1.08c0,0.324-0.288,0.54-0.972,0.792c0,0.9-0.072,1.728-0.108,2.556h2.268
		c1.044-1.26,1.332-1.476,1.62-1.476c0.359,0,0.647,0.216,1.764,1.224c0.504,0.468,0.72,0.72,0.72,1.008
		c0,0.252-0.107,0.36-0.899,1.008c-0.181,3.744-0.396,6.335-0.792,8.135c-0.36,1.548-0.864,2.52-1.584,3.06
		c-0.612,0.468-1.548,0.648-2.628,0.648c-0.504,0-0.611-0.072-0.647-0.54c-0.072-1.08-0.685-1.62-2.844-2.304
		c-0.18-0.072-0.145-0.468,0.036-0.432c1.584,0.18,2.483,0.216,3.419,0.216c0.864,0,1.116-0.612,1.584-3.6
		c0.216-1.404,0.432-4.715,0.432-6.119h-2.52c-0.684,6.335-3.06,10.115-7.847,12.598c-0.144,0.072-0.432-0.288-0.288-0.396
		c3.132-2.771,4.644-6.479,5.039-12.202h-2.447c-0.036,0.18-0.252,0.324-0.864,0.72c-0.323,4.428-0.684,7.307-1.331,9.143
		c-0.36,1.08-0.828,1.764-1.44,2.196c-0.611,0.468-1.403,0.647-2.411,0.647c-0.396,0-0.504-0.072-0.54-0.432
		c-0.145-1.332-0.468-1.728-2.556-2.34c-0.181-0.036-0.145-0.432,0.036-0.432c1.224,0.072,2.339,0.144,2.843,0.144
		c0.864,0,1.188-0.468,1.513-2.16c0.432-2.16,0.72-4.967,0.791-7.487h-2.447c-0.612,6.407-2.808,10.294-6.911,12.49
		c-0.144,0.072-0.432-0.18-0.288-0.324c2.592-2.628,3.96-6.155,4.248-12.167h-0.864c-0.684,0-1.332,0.072-2.231,0.288l-0.396-1.368
		c1.044,0.18,1.8,0.252,2.592,0.252h0.936c0.036-0.648,0.036-1.332,0.036-2.016c0-1.044,0-1.44-0.107-2.375
		c3.635,0.36,4.139,0.468,4.139,1.008c0,0.288-0.287,0.54-0.972,0.828c0,0.9-0.036,1.728-0.107,2.556h2.088
		c1.043-1.26,1.331-1.476,1.619-1.476c0.36,0,0.685,0.216,1.908,1.188c0.144,0.108,0.252,0.216,0.324,0.288H318.053z M316.073,8.775
		c-1.512,5.184-5.256,8.027-11.698,9.179c-0.181,0.036-0.288-0.288-0.108-0.36c4.716-2.195,7.307-4.751,8.423-8.819h-3.815
		c-0.864,0-1.764,0.072-2.916,0.288l-0.396-1.368c1.296,0.18,2.268,0.252,3.239,0.252h4.067c0.324-1.476,0.469-3.096,0.469-4.967
		c4.031,0.54,4.535,0.684,4.535,1.188c0,0.396-0.288,0.612-1.116,0.828c-0.107,1.044-0.252,2.052-0.468,2.952h5.724
		c1.224-1.44,1.512-1.656,1.8-1.656c0.359,0,0.647,0.18,1.979,1.368c0.576,0.504,0.792,0.792,0.792,1.08
		c0,0.252-0.108,0.36-1.044,1.043c-0.288,2.448-0.648,4.104-1.188,5.22c-0.433,0.792-0.937,1.332-1.584,1.691
		c-0.612,0.324-1.368,0.468-2.268,0.468c-0.792,0-0.973-0.072-1.044-0.504c-0.181-1.008-0.469-1.44-3.348-2.304
		c-0.181-0.036-0.181-0.468,0-0.468c2.304,0.18,3.312,0.252,3.815,0.252c0.972,0,1.439-0.252,1.8-1.439
		c0.252-0.828,0.432-2.088,0.576-3.924H316.073z"/>
	<path d="M330.368,20.186c-0.181,0.072-0.396-0.288-0.252-0.396c4.859-3.167,8.818-7.235,11.519-11.698
		c1.044-1.764,1.907-3.6,2.52-5.472c5.075,1.368,5.111,1.404,5.111,1.836c0,0.324-0.288,0.504-1.584,0.864
		c2.447,3.384,5.147,5.867,8.243,7.631c2.483,1.404,5.255,2.339,8.459,2.916c0.18,0.036,0.18,0.468,0,0.468
		c-1.152,0.108-1.944,1.008-2.484,2.952c-0.144,0.504-0.323,0.684-0.611,0.684s-0.9-0.288-1.692-0.72
		c-1.547-0.864-3.707-2.339-5.111-3.599c-2.987-2.664-5.111-5.436-7.271-9.647C343.758,12.375,338.251,16.982,330.368,20.186z
		 M346.025,23.461c-1.835,3.275-3.491,5.543-5.687,7.991c4.499-0.036,8.999-0.216,13.498-0.468c-0.9-1.836-1.908-3.132-3.527-4.644
		c-0.145-0.108,0.036-0.432,0.216-0.36c5.184,1.908,8.243,4.571,8.243,7.055c0,1.368-0.864,2.448-1.98,2.448
		c-1.043,0-1.26-0.252-2.159-2.592c-0.145-0.36-0.252-0.684-0.396-1.008c-5.831,1.439-11.122,2.268-18.537,3.023
		c-0.252,1.08-0.432,1.368-0.864,1.368c-0.576,0-0.576,0-1.907-5.003c1.619,0.144,2.411,0.18,4.644,0.18h1.331
		c1.044-2.592,1.872-5.255,2.376-7.991h-6.299c-0.756,0-1.512,0.072-2.521,0.216l-0.396-1.332c1.152,0.216,2.052,0.288,2.916,0.288
		h21.309c1.729-2.16,2.16-2.448,2.412-2.448c0.324,0,0.72,0.288,2.447,1.692c0.792,0.648,1.08,0.972,1.08,1.224
		s-0.107,0.36-0.468,0.36H346.025z M348.51,16.514c1.584-1.98,2.016-2.268,2.268-2.268c0.324,0,0.684,0.288,2.231,1.583
		c0.685,0.576,0.972,0.9,0.972,1.152s-0.107,0.36-0.468,0.36h-12.418c-0.648,0-1.26,0.072-2.124,0.216l-0.396-1.332
		c1.044,0.216,1.8,0.288,2.591,0.288H348.51z"/>
</g>
</svg>
