<svg id="main_lead_title_sp.svg" xmlns="http://www.w3.org/2000/svg" width="567.937" height="164" viewBox="0 0 567.937 164">
  <defs>
    <style>
      .cls-1 {
        fill: #262626;
        fill-rule: evenodd;
      }
    </style>
  </defs>
  <path id="紅に灯りつづけるは" class="cls-1" d="M210.8,2504.81c0,9.68-.41,14.92-0.41,16.32,0,1.31.574,1.88,2.132,1.88,2.05,0,3.116-.65,3.116-2.29,0-1.89-.246-8.53-0.246-17.71V2485.7c2.624-.57,5.248-1.14,7.872-1.8,0.246,0.9.41,1.8,0.574,2.71,0.41,2.95.984,3.77,2.542,3.77,1.722,0,2.542-1.4,2.542-3.36,0-3.61-3.362-8.45-8.938-11.81-0.41-.25-1.066.16-0.738,0.57a23.709,23.709,0,0,1,3.526,6.64c-5.248.5-10.578,0.82-15.908,0.99,6.478-5.82,10.332-10.58,15.99-18.54,2.3,0,3.034-.41,3.034-1.14,0-.91-1.23-1.48-6.56-4.1a35.071,35.071,0,0,1-3.034,6.72,127.018,127.018,0,0,1-11.891,17.06c-1.312.08-2.706,0.08-4.018,0.08a31.313,31.313,0,0,1-3.526-.16c0.9,6.06,1.476,7.13,2.214,7.13,0.574,0,.9-0.49,1.64-2.38,3.772-.49,7.053-0.98,10.087-1.47v18.2Zm-6.315-41.08a32.54,32.54,0,0,0-5.9-3.04,0.485,0.485,0,0,0-.574.74,24.436,24.436,0,0,1,6.806,9.43c0.985,2.79,1.395,3.28,2.871,3.28,1.148,0,2.132-1.31,2.132-2.95,0-2.05-1.394-4.35-3.936-6.4,3.444-3.52,5.412-6.31,8.938-11.64,2.542-.17,2.952-0.74,2.952-1.4,0-.9-1.476-1.64-7.3-3.6a29.33,29.33,0,0,1-1.722,6.23A58.477,58.477,0,0,1,204.489,2463.73Zm38.049,52.64H228.6a39.135,39.135,0,0,1-6.806-.49l0.738,3.03a30.633,30.633,0,0,1,6.15-.49h41.246c0.82,0,1.066-.24,1.066-0.74s-0.246-.9-1.968-2.46c-3.608-3.28-4.1-3.52-4.51-3.52-0.492,0-.9.24-4.264,4.67H247.868v-55.68h20.254c0.82,0,1.066-.24,1.066-0.74s-0.246-.9-1.886-2.29c-3.444-3.04-4.018-3.36-4.51-3.36-0.41,0-.82.24-4.018,4.34H232.7a31.294,31.294,0,0,1-6.068-.49l0.82,3.03a24.521,24.521,0,0,1,5.248-.49h9.84v55.68Zm-24.354-22.55a29.386,29.386,0,0,1,4.428,12.22c0.41,2.95.82,3.69,2.378,3.69,1.64,0,2.624-1.48,2.624-3.77,0-3.61-2.788-8.37-8.774-12.71C218.512,2493,217.938,2493.49,218.184,2493.82Zm-22.059,23.04c4.674-5.82,7.38-11.48,9.677-19.02,1.968-.41,2.542-0.9,2.542-1.48,0-.98-0.574-1.14-6.889-3.03a41.9,41.9,0,0,1-.984,6.97,71.678,71.678,0,0,1-5.33,15.99C194.9,2516.7,195.8,2517.27,196.125,2516.86Zm100.886-26.78a37.045,37.045,0,0,0-3.359,3.68,1.1,1.1,0,0,0-.276.64,0.467,0.467,0,0,0,.506.37,0.968,0.968,0,0,0,.6-0.37c1.932-1.79,2.623-2.53,4.233-3.36a5.861,5.861,0,0,1,2.852-.73c1.288,0,2.438.14,3.22,0.14a1.165,1.165,0,0,0,1.427-1.25c0-1.01-.736-1.74-3.681-1.74a24.544,24.544,0,0,0-12.927,3.35,0.922,0.922,0,0,0-.552.79,0.451,0.451,0,0,0,.506.46,1.619,1.619,0,0,0,.552-0.19,25.129,25.129,0,0,1,6.763-2.11C297.2,2489.71,297.241,2489.85,297.011,2490.08Zm-7.315,10.49a0.515,0.515,0,0,0-.506.37,10.62,10.62,0,0,0-.874,4,6.826,6.826,0,0,0,2.576,5.7c2.438,1.98,6.947,2.39,10.305,2.39a31,31,0,0,0,6.533-.59,1.311,1.311,0,0,0,1.2-1.34c0-1.06-1.242-1.52-2.76-1.52a7.862,7.862,0,0,0-1.841.23,23.179,23.179,0,0,1-5.382.56c-2.347,0-4.969-.23-7.039-1.57a5.3,5.3,0,0,1-2.208-4.64,13.149,13.149,0,0,1,.368-2.99C290.11,2500.84,290.064,2500.57,289.7,2500.57Zm-6.4-.69c-1.15,3.03-2.162,5.98-3.174,8.88a0.468,0.468,0,0,1-.414.36c-0.138,0-.276-0.18-0.368-0.64a20.322,20.322,0,0,1-.277-3.59,39.164,39.164,0,0,1,2.347-12.33,4.651,4.651,0,0,1,.874-1.56,2.753,2.753,0,0,0,.644-1.75,4.849,4.849,0,0,0-1.15-3.04c-0.736-.96-2.116-2.43-3.175-2.43a0.441,0.441,0,0,0-.414.41,1.013,1.013,0,0,0,.368.69,3.93,3.93,0,0,1,1.427,2.94,16.29,16.29,0,0,1-.644,3.22,58.509,58.509,0,0,0-2.209,13.76,25.627,25.627,0,0,0,1.61,9.11c0.553,1.29,1.105,1.66,1.8,1.66a0.988,0.988,0,0,0,1.012-1.2c0-.64-0.138-1.61-0.138-2.62a16.376,16.376,0,0,1,.6-3.18c0.506-2.11,1.334-5.15,2.3-8.37a1.964,1.964,0,0,0,.092-0.46,0.458,0.458,0,0,0-.506-0.41A0.61,0.61,0,0,0,283.3,2499.88Zm54.131-33.02c1.914-.8,2.177-1.19,2.177-1.72,0-.79-0.659-1.06-6.533-1.72a133.635,133.635,0,0,1,.4,13.93c0,13.79-1.056,21.51-3.432,27.91A40.633,40.633,0,0,1,321,2520.18c-0.264.26,0.4,0.92,0.726,0.66A37.037,37.037,0,0,0,334,2504.14c0.264-.72.528-1.52,0.792-2.24a22.153,22.153,0,0,1,7.391,10.23c0.792,1.98,1.518,2.84,2.508,2.84,1.32,0,2.178-1.19,2.178-2.71,0-3.37-4.29-8.25-11.747-11.48a67.821,67.821,0,0,0,1.98-12.61,35.253,35.253,0,0,0,9.569-7.39c1.98,0.07,2.442-.2,2.442-0.79,0-.66-0.528-1.12-4.95-3.76a20.608,20.608,0,0,1-2.31,4.42,40.251,40.251,0,0,1-4.685,6.07c0.2-2.64.264-5.54,0.264-8.98v-10.88Zm30.951,4.15h12.011c0.66,0,.924-0.19.924-0.59,0-.33-0.2-0.73-1.518-1.85-2.772-2.37-3.3-2.77-3.7-2.77s-0.858.4-3.5,3.56h-22.9a26.929,26.929,0,0,1-5.016-.39l0.594,2.44a22.007,22.007,0,0,1,4.554-.4h14.32v43.96a1.069,1.069,0,0,1-1.32,1.25c-1.319,0-3.761-.13-8.315-0.59-0.4-.07-0.462.85-0.066,0.92,5.874,1.25,7.128,2.18,7.458,3.83,0.132,0.92.264,0.99,0.989,0.99a6.625,6.625,0,0,0,3.894-1.19,4.473,4.473,0,0,0,1.848-3.89c0-2.12-.264-5.02-0.264-19.14v-26.14Zm-41.246,5.88c-0.066,4.88-1.98,8.91-4.29,10.89-1.254,1.12-1.584,1.78-1.584,2.77a2.088,2.088,0,0,0,2.046,2.18c2.97,0,5.081-3.77,5.081-10.37a41.977,41.977,0,0,0-.395-5.47C327.929,2476.49,327.137,2476.49,327.137,2476.89Zm66.716,23.63a11.791,11.791,0,0,1-.276-2.67,26.489,26.489,0,0,1,1.748-9.47,8.835,8.835,0,0,1,.736-1.48,2.6,2.6,0,0,0,.323-1.24,5.439,5.439,0,0,0-.829-2.85c-0.782-1.29-2.162-2.35-2.714-2.35a0.5,0.5,0,0,0-.552.37,0.932,0.932,0,0,0,.276.65,4.513,4.513,0,0,1,.92,3.03,24.96,24.96,0,0,1-.69,4.79,40.521,40.521,0,0,0-.966,8.51,26.1,26.1,0,0,0,.6,5.7c0.506,1.75,1.472,2.9,2.3,2.9a0.941,0.941,0,0,0,1.058-1.15,6.315,6.315,0,0,0-.138-1.15,11.279,11.279,0,0,1-.092-1.2,18.675,18.675,0,0,1,.875-4.92,37.179,37.179,0,0,1,4.048-9.71c0.644-1.01,1.334-1.74,2.208-1.74,2.209,0,4.049,3.81,4.049,11.18,0,9.52-4.923,16.33-12.836,19.64a0.84,0.84,0,0,0-.69.6,0.539,0.539,0,0,0,.46.64,3.832,3.832,0,0,0,.966-0.23c9.339-3.08,14.906-9.98,14.906-20.84,0-7.18-2.852-12.47-6.625-12.47-1.288,0-2.162.74-3.082,1.89-1.748,2.16-3.036,5.38-4.1,8.37-0.6,1.84-1.2,3.41-1.7,5.2h-0.184Zm53.638-11.87a24.275,24.275,0,0,0-9.569,2.35,94.418,94.418,0,0,0-8.7,4.37,5.21,5.21,0,0,1-2.485.87,3.757,3.757,0,0,1-2.668-1.47,0.818,0.818,0,0,0-.552-0.28c-0.23,0-.414.23-0.414,1.02a4.875,4.875,0,0,0,1.564,2.57,5.417,5.417,0,0,0,3.036,1.71,1.845,1.845,0,0,0,1.611-.79,11.3,11.3,0,0,1,2.024-1.74,61.092,61.092,0,0,1,7.131-4.38,20.255,20.255,0,0,1,8.971-2.57c4.692,0,8.833,2.99,8.833,7.64,0,4.46-2.577,7.45-6.165,9.7-4.187,2.67-8.787,3.77-13.756,4.6-0.644.09-.828,0.32-0.828,0.65a0.662,0.662,0,0,0,.828.69c4.969-.37,11.134-1.61,15.826-4.28,4.417-2.53,7.177-5.66,7.177-10.54C459.36,2493.48,454.851,2488.65,447.491,2488.65Zm57.317-7.96a0.461,0.461,0,0,0-.46.46,0.585,0.585,0,0,0,.184.46,11.646,11.646,0,0,1,3.772,3.68c0.644,1.06.966,1.25,1.518,1.25a1.155,1.155,0,0,0,1.059-1.25c0-1.05-1.013-2.2-2.071-2.94a11.831,11.831,0,0,0-3.266-1.52A3.338,3.338,0,0,0,504.808,2480.69Zm-3.865,2.86a0.509,0.509,0,0,0-.506.5,0.628,0.628,0,0,0,.276.46,13.206,13.206,0,0,1,3.4,3.73c0.6,1.15.874,1.52,1.518,1.52a1.172,1.172,0,0,0,1.15-1.34c0-1.01-1.012-2.21-1.978-2.99a11.27,11.27,0,0,0-3.4-1.84A1.791,1.791,0,0,0,500.943,2483.55Zm-6.9,5.84a24.437,24.437,0,0,0-9.57,2.34,97.29,97.29,0,0,0-8.694,4.38,5.21,5.21,0,0,1-2.485.87,3.757,3.757,0,0,1-2.668-1.47,0.778,0.778,0,0,0-.552-0.28c-0.23,0-.414.23-0.414,1.01a4.9,4.9,0,0,0,1.564,2.58,5.388,5.388,0,0,0,3.036,1.7,1.837,1.837,0,0,0,1.611-.78,11.318,11.318,0,0,1,2.024-1.75,62.374,62.374,0,0,1,7.131-4.37,20.275,20.275,0,0,1,8.971-2.58c4.692,0,8.833,2.99,8.833,7.64,0,4.46-2.577,7.45-6.165,9.71-4.187,2.67-8.787,3.77-13.756,4.6-0.644.09-.828,0.32-0.828,0.64a0.655,0.655,0,0,0,.828.69c4.969-.36,11.134-1.61,15.826-4.28,4.417-2.53,7.177-5.65,7.177-10.53C505.912,2494.22,501.4,2489.39,494.043,2489.39Zm53.866,1.65c0-1.51.046-2.76,0.092-4.09a2.076,2.076,0,0,1,.506-1.24,2.207,2.207,0,0,0,.414-1.15c0-.78-0.828-1.47-1.61-1.98a8.316,8.316,0,0,0-3.22-1.2,2.952,2.952,0,0,0-1.61.6,1.029,1.029,0,0,0-.6.78c0,0.19.231,0.28,0.553,0.28,2.346,0,2.944.69,2.99,2.44,0.046,1.84.092,4,.138,5.98a41.767,41.767,0,0,1-7.453.92,6.758,6.758,0,0,1-3.726-1.01,1.206,1.206,0,0,0-.6-0.23,0.586,0.586,0,0,0-.507.55,0.84,0.84,0,0,0,.277.6,6.884,6.884,0,0,0,5.106,2.07,45.211,45.211,0,0,0,6.9-.79c0,1.8.046,3.64,0.046,5.66,0,5.52-.6,8.79-2.162,11.5-1.657,2.81-4.555,5.11-8.649,7.04a0.661,0.661,0,0,0-.46.56,0.555,0.555,0,0,0,.506.55,2.859,2.859,0,0,0,.966-0.23c4.554-1.61,7.637-3.64,9.615-6.63,1.794-2.71,2.576-6.25,2.576-10.99,0-2.81-.092-5.57-0.092-7.92,2.392-.41,4.555-0.69,6.579-0.96,1.058-.14,1.518-0.37,1.518-1.34,0-.73-1.012-1.38-2.346-1.38a3.125,3.125,0,0,0-1.656.51,6.3,6.3,0,0,1-1.611.6C549.611,2490.72,548.875,2490.86,547.909,2491.04Zm-19.6,16.84c0.6-2.48,1.288-5.06,2.392-9.11,0.092-.41-0.092-0.69-0.368-0.69a0.768,0.768,0,0,0-.69.6c-1.334,3.41-2.484,6.67-3.266,8.97-0.23.65-.736,0.6-0.92-0.14a18.485,18.485,0,0,1-.552-4.37,37.493,37.493,0,0,1,1.978-11.82c0.092-.32.368-1.01,0.46-1.29a5.377,5.377,0,0,0,.46-1.79,4.863,4.863,0,0,0-1.1-3.18c-0.69-.92-2.116-2.34-2.623-2.34-0.414,0-.6.14-0.6,0.32a0.844,0.844,0,0,0,.138.6,7.316,7.316,0,0,1,1.289,3.54,18.1,18.1,0,0,1-.276,3.08,86.025,86.025,0,0,0-1.611,12.42,22.082,22.082,0,0,0,1.887,9.57,2.513,2.513,0,0,0,1.978,1.66,1.213,1.213,0,0,0,1.2-1.38c0-.51-0.138-1.38-0.138-2.07A13.973,13.973,0,0,1,528.311,2507.88Zm45.494-6.39c4-4.46,7.867-9.07,11.824-13.16,1.2-1.2,1.61-1.43,2.3-1.61a0.951,0.951,0,0,0,.874-0.97,3.333,3.333,0,0,0-1.564-1.97,4.46,4.46,0,0,0-2.255-1.02,1.241,1.241,0,0,0-.966.42,2.683,2.683,0,0,1-1.15.73c-1.886.56-4.048,1.2-6.164,1.66a13.593,13.593,0,0,1-2.623.37c-0.828,0-1.426-.42-2.208-1.43a1.025,1.025,0,0,0-.782-0.6,0.683,0.683,0,0,0-.414.74,5.208,5.208,0,0,0,1.242,2.76c1.058,1.29,1.84,1.61,2.576,1.61a1.645,1.645,0,0,0,1.15-.6,4.379,4.379,0,0,1,1.2-.6c2.3-.87,4.876-1.79,7.406-2.62,0.552-.18.736,0,0.414,0.42a226.707,226.707,0,0,1-16.7,19.5,2.543,2.543,0,0,0-.921,1.75,1.554,1.554,0,0,0,1.519,1.47,1.4,1.4,0,0,0,1.1-.5,30.672,30.672,0,0,1,3.22-3.64c3.128-2.8,6.763-4.74,10.9-4.74,3.451,0,7.223,2.03,7.223,7.46a8.87,8.87,0,0,1-6.257,7.91c-0.552-1.98-3.22-5.89-7.682-5.89-2.531,0-4.325,1.43-4.325,3.63,0,2.86,3.22,5.02,8.649,5.02,6.257,0,12.468-3.82,12.468-10.54,0-4.23-2.715-9.06-10.306-9.06-3.22,0-6.394,1.29-9.661,3.54Zm8.419,13.8a5.907,5.907,0,0,1-1.748.18c-4.509,0-6.257-1.79-6.257-3.13,0-1.05.736-2.07,2.485-2.07C578.774,2510.27,581.442,2512.62,582.224,2515.29Zm51.107-6.35c-0.276-4.32-.368-9.29-0.368-13.94a44.312,44.312,0,0,0,6.165-1.61c0.874-.32,1.334-0.64,1.334-1.33a1.429,1.429,0,0,0-1.61-1.11,4.1,4.1,0,0,0-2.3.51,7.914,7.914,0,0,1-1.381.69,21.046,21.046,0,0,1-2.254.6c0-1.48.046-2.95,0.138-4.47a2.792,2.792,0,0,1,.6-1.88,1.344,1.344,0,0,0,.552-1.01c0-.88-1.15-1.61-1.932-1.98a8.348,8.348,0,0,0-3.174-.83c-0.966,0-1.8.55-1.8,1.01,0,0.37.138,0.46,0.6,0.46a3.383,3.383,0,0,1,2.162.55c0.368,0.28.552,0.6,0.6,1.75,0.092,1.98.184,4.69,0.184,6.81a48.518,48.518,0,0,1-7.453.69,4.1,4.1,0,0,1-3.588-1.75,0.967,0.967,0,0,0-.69-0.55,0.441,0.441,0,0,0-.414.41,2.206,2.206,0,0,0,.138.69,4.884,4.884,0,0,0,4.83,3.22,52.689,52.689,0,0,0,7.223-.5c0.046,4.28.092,8.6,0.138,12.83a18.985,18.985,0,0,0-4.371-.5c-4.232,0-6.486,1.88-6.486,4.28,0,2.71,2.76,4.46,6.44,4.46,4.785,0,6.671-2.76,6.671-5.06a37.216,37.216,0,0,1,5.245,3.5,2.167,2.167,0,0,0,1.61.5,1.3,1.3,0,0,0,1.012-1.42,2.158,2.158,0,0,0-.782-1.29A27.184,27.184,0,0,0,633.331,2508.94Zm-2.392,1.47c0,2.67-1.794,4.05-4.693,4.05-3.358,0-4.646-1.06-4.646-2.62,0-1.66,2.024-2.44,4.094-2.44A14.648,14.648,0,0,1,630.939,2510.41Zm-21.485-5.52a40.969,40.969,0,0,1,2.761-13.52,5.466,5.466,0,0,1,.736-1.57,2.277,2.277,0,0,0,.644-1.52,4.923,4.923,0,0,0-.92-2.99,7.307,7.307,0,0,0-1.932-2.11,1.683,1.683,0,0,0-.921-0.46,0.512,0.512,0,0,0-.552.46,1.1,1.1,0,0,0,.23.55,6.118,6.118,0,0,1,1.059,3.27,15.552,15.552,0,0,1-.737,4.04,61.589,61.589,0,0,0-2.254,14.73c0,3.31.276,7.77,1.748,10.58a1.737,1.737,0,0,0,1.565,1.19,1.049,1.049,0,0,0,1.058-1.24c0-.92-0.046-1.84-0.046-2.76a12.09,12.09,0,0,1,.414-2.35c0.414-2.02,1.7-6.16,2.576-9.24a1.634,1.634,0,0,0,.092-0.46,0.54,0.54,0,0,0-.414-0.6,0.7,0.7,0,0,0-.6.51c-1.058,2.57-2.53,6.53-3.45,9.29a0.352,0.352,0,0,1-.368.27c-0.185,0-.276-0.13-0.415-0.82A33.834,33.834,0,0,1,609.454,2504.89Z" transform="translate(-195.125 -2448.16)"/>
  <path id="日本の心" class="cls-1" d="M552.007,2604.91v3.23c0,1.12.528,1.52,1.847,1.52,1.848,0,2.838-.53,2.838-1.85,0-2.04-.4-9.11-0.4-30.75v-15.84c1.518-.99,1.914-1.39,1.914-1.85,0-.33-0.264-0.66-1.188-1.52-2.244-1.84-2.706-2.11-3.036-2.11-0.4,0-.66.33-2.639,2.44H523.761a31.7,31.7,0,0,0-5.346-2.64c0.33,4.43.4,9.64,0.4,24.09,0,22.04-.4,26.73-0.4,29.04,0,1.19.528,1.52,1.848,1.52,1.848,0,2.772-.46,2.772-1.85v-3.43h28.972Zm0-1.65H523.035v-21.58h28.972v21.58Zm0-23.23H523.035v-20.2h28.972v20.2Zm48.643-13.6h-20a26.052,26.052,0,0,1-5.478-.46l0.594,2.51a25.624,25.624,0,0,1,4.884-.4H598.34a76.305,76.305,0,0,1-25.54,31.55c-0.329.2,0.264,0.99,0.594,0.79a69.249,69.249,0,0,0,27.586-27.72l-0.4,22.84h-9.041a21.76,21.76,0,0,1-4.95-.47l0.66,2.51a22.119,22.119,0,0,1,4.488-.39h8.843c-0.2,8.97-.264,12.4-0.264,13.33,0,1.12.528,1.65,1.914,1.65,1.848,0,2.838-.6,2.838-1.92,0-1.18-.066-4.29-0.2-13.06h13.331c0.659,0,.857-0.27.857-0.6,0-.39-0.2-0.72-1.385-1.71-2.574-2.18-3.168-2.51-3.5-2.51s-0.792.33-3.1,3.17h-6.2c-0.132-8.85-.264-17.69-0.462-26.53a69.529,69.529,0,0,0,9.965,17.82,60.474,60.474,0,0,0,13.463,12.01,8.334,8.334,0,0,0,2.639,1.32,1.036,1.036,0,0,0,.858-0.86c0.858-2.11,1.584-2.64,2.97-2.97,0.33-.07.462-0.53,0.132-0.66a50.655,50.655,0,0,1-17.554-11.15,57.02,57.02,0,0,1-11.351-16.44h25.671c0.66,0,.924-0.2.924-0.66,0-.33-0.264-0.66-1.65-1.85-2.969-2.44-3.5-2.7-3.827-2.7-0.4,0-.792.26-3.432,3.56H604.742v-10.82c1.914-.92,2.244-1.32,2.244-1.85,0-.72-0.924-1.19-6.666-1.78,0.264,2.44.33,4.49,0.33,13.59v0.86Zm59.585,11.51c0.782-.04,1.748-0.04,2.485,0,7.038,0.37,12.145,4.93,12.145,11.92,0,8.97-8.787,13.2-16.47,14.54-0.644.13-.782,0.37-0.782,0.73a0.616,0.616,0,0,0,.782.51c9.431-.51,19.506-5.34,19.506-15,0-8.33-6.486-14.35-15.734-14.35a19.076,19.076,0,0,0-13.341,4.97,15.556,15.556,0,0,0-5.015,11.41,11.233,11.233,0,0,0,1.611,6.07,4.735,4.735,0,0,0,3.68,2.39c1.518,0,3.082-1.29,4.554-3.08a46.166,46.166,0,0,0,6.625-12.19,16.683,16.683,0,0,0,.874-4.51A6.465,6.465,0,0,0,660.235,2577.94Zm-1.426.19a2.831,2.831,0,0,1,.552,1.93,9.364,9.364,0,0,1-.644,3.31,42.659,42.659,0,0,1-6.349,12.06c-1.426,1.88-2.392,2.66-3.22,2.66a2.763,2.763,0,0,1-2.162-1.56,9.373,9.373,0,0,1-1.1-4.65,12.855,12.855,0,0,1,3.726-9.11A15.728,15.728,0,0,1,658.809,2578.13Zm58.086-35.81a35.265,35.265,0,0,1,13.12,10.99c2.05,2.79,2.706,3.11,3.772,3.11,1.8,0,2.87-1.55,2.87-3.36,0-4.75-8.692-10.08-19.434-11.64A0.5,0.5,0,0,0,716.9,2542.32Zm32.226,28.54a41.31,41.31,0,0,1,7.462,17.63c0.656,4.1,1.476,5,3.28,5,2.05,0,3.2-1.56,3.2-4.51,0-5.49-5-13.53-13.2-18.78C749.449,2569.95,748.793,2570.45,749.121,2570.86Zm-47.56.73c-0.738,7.3-3.28,12.88-7.708,16.41-1.558,1.14-2.132,2.05-2.132,3.44a3.018,3.018,0,0,0,3.034,3.2c4.838,0,8.364-7.05,8.364-16.73a43.557,43.557,0,0,0-.492-6.32A0.57,0.57,0,0,0,701.561,2571.59Zm16.646-9.1c2.542-.98,2.952-1.64,2.952-2.38,0-1.06-.738-1.47-8.692-2.37,0.41,4.42.492,7.21,0.492,20.33,0,15.75-.246,20.83-0.246,22.39,0,7.13,2.132,9.1,15.662,9.1,9.43,0,14.268-.57,16.81-1.39,2.3-.74,3.936-2.22,3.936-3.94a1.646,1.646,0,0,0-.984-1.72,2.005,2.005,0,0,1-1.476-2.21c0-1.64.164-4.84,0.41-9.52,0-.49-0.984-0.57-1.066-0.08-2.46,9.43-3.526,11.65-5.33,12.63-2.05,1.15-4.1,1.31-11.234,1.31-10.332,0-11.234-.57-11.234-4.84v-37.31Z" transform="translate(-195.125 -2448.16)"/>
</svg>
