<svg id="main_lead_title.svg" xmlns="http://www.w3.org/2000/svg" width="153.71" height="658.13" viewBox="0 0 153.71 658.13">
  <defs>
    <style>
      .cls-1 {
        fill: #262626;
        fill-rule: evenodd;
      }
    </style>
  </defs>
  <path id="日本の心" class="cls-1" d="M2221.76,3040.85v3.23c0,1.12.53,1.52,1.85,1.52,1.85,0,2.84-.53,2.84-1.85,0-2.05-.4-9.11-0.4-30.75v-15.84c1.52-.99,1.91-1.39,1.91-1.85,0-.33-0.26-0.66-1.18-1.52-2.25-1.85-2.71-2.11-3.04-2.11-0.39,0-.66.33-2.64,2.44h-27.58a30.933,30.933,0,0,0-5.35-2.64c0.33,4.42.4,9.64,0.4,24.09,0,22.04-.4,26.73-0.4,29.04,0,1.18.53,1.51,1.85,1.51,1.85,0,2.77-.46,2.77-1.84v-3.43h28.97Zm0-1.65h-28.97v-21.58h28.97v21.58Zm0-23.23h-28.97v-20.2h28.97v20.2Zm-17.36,59h-19.99a26.743,26.743,0,0,1-5.48-.46l0.6,2.51a25.532,25.532,0,0,1,4.88-.4h17.69a76.486,76.486,0,0,1-25.54,31.55c-0.33.19,0.26,0.99,0.59,0.79a69.284,69.284,0,0,0,27.58-27.72l-0.39,22.83h-9.04a21.736,21.736,0,0,1-4.95-.46l0.66,2.51a22.169,22.169,0,0,1,4.49-.4h8.84c-0.2,8.98-.27,12.41-0.27,13.33,0,1.13.53,1.65,1.92,1.65,1.85,0,2.84-.59,2.84-1.91,0-1.19-.07-4.29-0.2-13.07h13.33c0.66,0,.86-0.26.86-0.59,0-.4-0.2-0.73-1.39-1.72-2.57-2.17-3.17-2.5-3.5-2.5s-0.79.33-3.1,3.16h-6.2q-0.2-13.26-.46-26.53a69.452,69.452,0,0,0,9.96,17.82,60.477,60.477,0,0,0,13.46,12.01,8.226,8.226,0,0,0,2.64,1.32,1.036,1.036,0,0,0,.86-0.85c0.86-2.12,1.59-2.64,2.97-2.97a0.352,0.352,0,0,0,.13-0.66,50.714,50.714,0,0,1-17.55-11.16,56.874,56.874,0,0,1-11.35-16.43h25.67c0.66,0,.92-0.2.92-0.66,0-.33-0.26-0.66-1.65-1.85-2.97-2.44-3.49-2.7-3.82-2.7-0.4,0-.8.26-3.44,3.56H2208.5v-10.82c1.91-.93,2.24-1.32,2.24-1.85,0-.73-0.92-1.19-6.67-1.78,0.27,2.44.33,4.49,0.33,13.59v0.86Zm2.27,66.51c0.78-.04,1.75-0.04,2.48,0,7.04,0.37,12.15,4.92,12.15,11.92,0,8.97-8.79,13.2-16.47,14.53-0.64.14-.78,0.37-0.78,0.74a0.617,0.617,0,0,0,.78.51c9.43-.51,19.51-5.34,19.51-15,0-8.33-6.49-14.35-15.74-14.35a19.11,19.11,0,0,0-13.34,4.96,15.576,15.576,0,0,0-5.01,11.41,11.183,11.183,0,0,0,1.61,6.08,4.729,4.729,0,0,0,3.68,2.39c1.51,0,3.08-1.29,4.55-3.08a46.327,46.327,0,0,0,6.63-12.2,16.531,16.531,0,0,0,.87-4.5A6.477,6.477,0,0,0,2206.67,3141.48Zm-1.43.19a2.786,2.786,0,0,1,.56,1.93,9.342,9.342,0,0,1-.65,3.31,42.348,42.348,0,0,1-6.35,12.05c-1.42,1.89-2.39,2.67-3.22,2.67a2.769,2.769,0,0,1-2.16-1.56,9.4,9.4,0,0,1-1.1-4.65,12.84,12.84,0,0,1,3.72-9.11A15.743,15.743,0,0,1,2205.24,3141.67Zm-8.67,46.47a35.389,35.389,0,0,1,13.12,10.99c2.05,2.79,2.71,3.12,3.77,3.12,1.81,0,2.87-1.56,2.87-3.36,0-4.76-8.69-10.09-19.43-11.65A0.5,0.5,0,0,0,2196.57,3188.14Zm32.23,28.54a41.307,41.307,0,0,1,7.46,17.63c0.65,4.1,1.47,5,3.28,5,2.05,0,3.2-1.56,3.2-4.51,0-5.49-5.01-13.53-13.21-18.78C2229.12,3215.78,2228.47,3216.27,2228.8,3216.68Zm-47.56.74c-0.74,7.3-3.28,12.87-7.71,16.4-1.56,1.15-2.13,2.05-2.13,3.44a3.016,3.016,0,0,0,3.03,3.2c4.84,0,8.36-7.05,8.36-16.73a43.028,43.028,0,0,0-.49-6.31A0.566,0.566,0,0,0,2181.24,3217.42Zm16.64-9.1c2.54-.99,2.95-1.64,2.95-2.38,0-1.07-.73-1.48-8.69-2.38,0.41,4.43.49,7.22,0.49,20.34,0,15.74-.24,20.82-0.24,22.38,0,7.14,2.13,9.1,15.66,9.1,9.43,0,14.27-.57,16.81-1.39,2.3-.74,3.94-2.21,3.94-3.94a1.648,1.648,0,0,0-.99-1.72,2.006,2.006,0,0,1-1.47-2.21c0-1.64.16-4.84,0.41-9.51,0-.5-0.99-0.58-1.07-0.09-2.46,9.43-3.53,11.65-5.33,12.63-2.05,1.15-4.1,1.31-11.23,1.31-10.34,0-11.24-.57-11.24-4.83v-37.31Z" transform="translate(-2171.41 -2597.25)"/>
  <path id="紅に灯りつづけるは" class="cls-1" d="M2264.93,2653.9c0,9.68-.41,14.92-0.41,16.32,0,1.31.57,1.88,2.13,1.88,2.05,0,3.11-.65,3.11-2.29,0-1.89-.24-8.53-0.24-17.71v-17.31c2.62-.57,5.25-1.14,7.87-1.8,0.25,0.9.41,1.8,0.57,2.71,0.41,2.95.99,3.77,2.55,3.77,1.72,0,2.54-1.4,2.54-3.36,0-3.61-3.36-8.45-8.94-11.81-0.41-.25-1.07.16-0.74,0.57a23.724,23.724,0,0,1,3.53,6.64c-5.25.5-10.58,0.82-15.91,0.99,6.48-5.82,10.33-10.58,15.99-18.54,2.3,0,3.03-.41,3.03-1.14,0-.91-1.23-1.48-6.56-4.1a34.871,34.871,0,0,1-3.03,6.72,126.468,126.468,0,0,1-11.89,17.06c-1.31.08-2.71,0.08-4.02,0.08a31.253,31.253,0,0,1-3.52-.16c0.9,6.06,1.47,7.13,2.21,7.13,0.57,0,.9-0.49,1.64-2.38,3.77-.49,7.05-0.98,10.09-1.47v18.2Zm-6.32-41.08a32.7,32.7,0,0,0-5.9-3.04,0.489,0.489,0,0,0-.58.74,24.406,24.406,0,0,1,6.81,9.43c0.98,2.79,1.39,3.28,2.87,3.28,1.15,0,2.13-1.31,2.13-2.95,0-2.05-1.39-4.35-3.93-6.4,3.44-3.52,5.41-6.31,8.93-11.64,2.55-.17,2.96-0.74,2.96-1.4,0-.9-1.48-1.64-7.3-3.6a29.794,29.794,0,0,1-1.72,6.23A58.391,58.391,0,0,1,2258.61,2612.82Zm38.05,52.64h-13.94a39.222,39.222,0,0,1-6.81-.49l0.74,3.03a30.645,30.645,0,0,1,6.15-.49h41.25c0.82,0,1.06-.24,1.06-0.74s-0.24-.9-1.96-2.46c-3.61-3.28-4.1-3.52-4.51-3.52-0.5,0-.91.24-4.27,4.67h-12.38v-55.68h20.25c0.82,0,1.07-.24,1.07-0.74s-0.25-.9-1.89-2.29c-3.44-3.04-4.01-3.36-4.51-3.36-0.41,0-.82.24-4.01,4.34h-26.08a31.289,31.289,0,0,1-6.07-.49l0.82,3.03a24.55,24.55,0,0,1,5.25-.49h9.84v55.68Zm-24.35-22.55a29.456,29.456,0,0,1,4.42,12.22c0.41,2.95.82,3.69,2.38,3.69,1.64,0,2.63-1.48,2.63-3.77,0-3.61-2.79-8.37-8.78-12.71C2272.63,2642.09,2272.06,2642.58,2272.31,2642.91Zm-22.06,23.04c4.67-5.82,7.38-11.48,9.67-19.02,1.97-.41,2.55-0.9,2.55-1.48,0-.98-0.58-1.14-6.89-3.03a41.923,41.923,0,0,1-.99,6.97,71.17,71.17,0,0,1-5.33,15.99C2249.02,2665.79,2249.92,2666.36,2250.25,2665.95Zm41.8,31.74a37.924,37.924,0,0,0-3.36,3.68,1.11,1.11,0,0,0-.27.64,0.46,0.46,0,0,0,.5.37,0.957,0.957,0,0,0,.6-0.37c1.93-1.79,2.62-2.53,4.23-3.35a5.8,5.8,0,0,1,2.86-.74c1.29,0,2.44.14,3.22,0.14a1.16,1.16,0,0,0,1.42-1.24c0-1.02-.73-1.75-3.68-1.75a24.416,24.416,0,0,0-12.92,3.36,0.927,0.927,0,0,0-.56.78,0.456,0.456,0,0,0,.51.46,1.39,1.39,0,0,0,.55-0.19,25.142,25.142,0,0,1,6.76-2.11C2292.24,2697.32,2292.28,2697.46,2292.05,2697.69Zm-7.31,10.49a0.521,0.521,0,0,0-.51.37,10.651,10.651,0,0,0-.87,4,6.809,6.809,0,0,0,2.57,5.7c2.44,1.98,6.95,2.4,10.31,2.4a30.907,30.907,0,0,0,6.53-.6,1.315,1.315,0,0,0,1.2-1.34c0-1.05-1.24-1.51-2.76-1.51a7.285,7.285,0,0,0-1.84.23,23.772,23.772,0,0,1-5.39.55c-2.34,0-4.96-.23-7.03-1.57a5.3,5.3,0,0,1-2.21-4.64,12.88,12.88,0,0,1,.37-2.99C2285.15,2708.46,2285.11,2708.18,2284.74,2708.18Zm-6.4-.69c-1.15,3.04-2.16,5.98-3.17,8.88a0.479,0.479,0,0,1-.42.37,0.671,0.671,0,0,1-.36-0.65,19.666,19.666,0,0,1-.28-3.59,39.159,39.159,0,0,1,2.35-12.33,4.763,4.763,0,0,1,.87-1.56,2.767,2.767,0,0,0,.65-1.75,4.772,4.772,0,0,0-1.16-3.03c-0.73-.97-2.11-2.44-3.17-2.44a0.44,0.44,0,0,0-.41.41,1.019,1.019,0,0,0,.36.69,3.936,3.936,0,0,1,1.43,2.95,16.66,16.66,0,0,1-.64,3.22,57.98,57.98,0,0,0-2.21,13.75,25.582,25.582,0,0,0,1.61,9.11c0.55,1.29,1.1,1.66,1.79,1.66a0.987,0.987,0,0,0,1.01-1.2c0-.64-0.13-1.61-0.13-2.62a16.232,16.232,0,0,1,.6-3.18c0.5-2.11,1.33-5.15,2.3-8.37a2.312,2.312,0,0,0,.09-0.46,0.469,0.469,0,0,0-.51-0.41A0.627,0.627,0,0,0,2278.34,2707.49Zm-4.63,35.18c1.92-.8,2.18-1.19,2.18-1.72,0-.79-0.66-1.06-6.53-1.72a135.681,135.681,0,0,1,.39,13.93c0,13.79-1.05,21.51-3.43,27.91a40.644,40.644,0,0,1-9.04,14.92c-0.26.26,0.4,0.92,0.73,0.66a37.041,37.041,0,0,0,12.27-16.7c0.27-.72.53-1.51,0.79-2.24a22.2,22.2,0,0,1,7.4,10.23c0.79,1.98,1.51,2.84,2.5,2.84,1.32,0,2.18-1.19,2.18-2.71,0-3.37-4.29-8.25-11.75-11.48a67.162,67.162,0,0,0,1.98-12.61,35.151,35.151,0,0,0,9.57-7.39c1.98,0.07,2.44-.2,2.44-0.79,0-.66-0.52-1.12-4.94-3.76a21.02,21.02,0,0,1-2.31,4.42,40.419,40.419,0,0,1-4.69,6.07c0.2-2.64.26-5.54,0.26-8.97v-10.89Zm30.96,4.15h12.01c0.66,0,.92-0.19.92-0.59,0-.33-0.2-0.73-1.52-1.85-2.77-2.37-3.3-2.77-3.69-2.77s-0.86.4-3.5,3.56h-22.9a26.984,26.984,0,0,1-5.02-.39l0.6,2.44a21.958,21.958,0,0,1,4.55-.4h14.32v43.96a1.069,1.069,0,0,1-1.32,1.25c-1.32,0-3.76-.13-8.31-0.59-0.4-.07-0.47.85-0.07,0.92,5.87,1.25,7.13,2.18,7.46,3.83,0.13,0.92.26,0.99,0.99,0.99a6.631,6.631,0,0,0,3.89-1.19,4.479,4.479,0,0,0,1.85-3.89c0-2.12-.26-5.02-0.26-19.14v-26.14Zm-41.25,5.88c-0.07,4.88-1.98,8.91-4.29,10.89-1.25,1.12-1.58,1.78-1.58,2.77a2.082,2.082,0,0,0,2.04,2.18c2.97,0,5.08-3.77,5.08-10.37a42.447,42.447,0,0,0-.39-5.47C2264.21,2752.3,2263.42,2752.3,2263.42,2752.7Zm17.32,78.63a11.629,11.629,0,0,1-.28-2.67,26.487,26.487,0,0,1,1.75-9.47,7.949,7.949,0,0,1,.73-1.47,2.687,2.687,0,0,0,.33-1.25,5.523,5.523,0,0,0-.83-2.85c-0.78-1.29-2.16-2.35-2.72-2.35a0.5,0.5,0,0,0-.55.37,0.912,0.912,0,0,0,.28.65,4.534,4.534,0,0,1,.92,3.03,24.96,24.96,0,0,1-.69,4.79,40.236,40.236,0,0,0-.97,8.51,25.969,25.969,0,0,0,.6,5.7c0.51,1.75,1.47,2.9,2.3,2.9a0.942,0.942,0,0,0,1.06-1.15,6.64,6.64,0,0,0-.14-1.15,10.3,10.3,0,0,1-.09-1.19,18.822,18.822,0,0,1,.87-4.93,37.29,37.29,0,0,1,4.05-9.7c0.64-1.02,1.33-1.75,2.21-1.75,2.21,0,4.05,3.82,4.05,11.18,0,9.52-4.93,16.33-12.84,19.64a0.861,0.861,0,0,0-.69.6,0.533,0.533,0,0,0,.46.64,3.852,3.852,0,0,0,.97-0.23c9.34-3.08,14.9-9.98,14.9-20.84,0-7.17-2.85-12.46-6.62-12.46-1.29,0-2.16.73-3.08,1.88-1.75,2.16-3.04,5.38-4.1,8.37-0.6,1.84-1.19,3.41-1.7,5.2h-0.18Zm12.23,38.73a24.308,24.308,0,0,0-9.57,2.35,95.5,95.5,0,0,0-8.69,4.37,5.22,5.22,0,0,1-2.49.87,3.7,3.7,0,0,1-2.66-1.47,0.818,0.818,0,0,0-.56-0.27c-0.23,0-.41.23-0.41,1.01a4.9,4.9,0,0,0,1.56,2.57,5.431,5.431,0,0,0,3.04,1.71,1.862,1.862,0,0,0,1.61-.78,10.961,10.961,0,0,1,2.02-1.75,60.835,60.835,0,0,1,7.14-4.37,20.094,20.094,0,0,1,8.97-2.58c4.69,0,8.83,2.99,8.83,7.64,0,4.46-2.58,7.45-6.16,9.7-4.19,2.67-8.79,3.78-13.76,4.6-0.64.1-.83,0.33-0.83,0.65a0.663,0.663,0,0,0,.83.69c4.97-.37,11.13-1.61,15.83-4.28,4.41-2.53,7.17-5.66,7.17-10.54C2304.84,2874.89,2300.33,2870.06,2292.97,2870.06Zm10.4,42.64a0.458,0.458,0,0,0-.46.46,0.61,0.61,0,0,0,.18.46,11.72,11.72,0,0,1,3.78,3.69c0.64,1.05.96,1.24,1.51,1.24a1.149,1.149,0,0,0,1.06-1.24c0-1.06-1.01-2.21-2.07-2.95a11.849,11.849,0,0,0-3.26-1.52A3.425,3.425,0,0,0,2303.37,2912.7Zm-3.86,2.86a0.51,0.51,0,0,0-.51.5,0.6,0.6,0,0,0,.28.46,13.3,13.3,0,0,1,3.4,3.73c0.6,1.15.87,1.52,1.52,1.52a1.172,1.172,0,0,0,1.15-1.34c0-1.01-1.01-2.2-1.98-2.99a11.349,11.349,0,0,0-3.4-1.84A1.829,1.829,0,0,0,2299.51,2915.56Zm-6.91,5.84a24.263,24.263,0,0,0-9.56,2.35,94.361,94.361,0,0,0-8.7,4.37,5.226,5.226,0,0,1-2.48.87,3.751,3.751,0,0,1-2.67-1.47,0.792,0.792,0,0,0-.55-0.28c-0.23,0-.42.23-0.42,1.01a4.886,4.886,0,0,0,1.57,2.58,5.353,5.353,0,0,0,3.03,1.7,1.828,1.828,0,0,0,1.61-.78,11.872,11.872,0,0,1,2.03-1.75,62.1,62.1,0,0,1,7.13-4.37,20.24,20.24,0,0,1,8.97-2.57c4.69,0,8.83,2.99,8.83,7.63,0,4.47-2.57,7.46-6.16,9.71-4.19,2.67-8.79,3.77-13.76,4.6-0.64.09-.83,0.32-0.83,0.64a0.658,0.658,0,0,0,.83.69c4.97-.36,11.13-1.61,15.83-4.27,4.41-2.53,7.17-5.66,7.17-10.54C2304.47,2926.23,2299.97,2921.4,2292.6,2921.4Zm5.11,52.26c0-1.52.05-2.76,0.09-4.1a2.1,2.1,0,0,1,.51-1.24,2.2,2.2,0,0,0,.41-1.15c0-.78-0.82-1.47-1.61-1.98a8.271,8.271,0,0,0-3.22-1.2,2.957,2.957,0,0,0-1.61.6,1.06,1.06,0,0,0-.6.79c0,0.18.23,0.27,0.56,0.27,2.34,0,2.94.69,2.99,2.44,0.04,1.84.09,4,.14,5.98a41.915,41.915,0,0,1-7.46.92,6.72,6.72,0,0,1-3.72-1.01,1.226,1.226,0,0,0-.6-0.23,0.589,0.589,0,0,0-.51.55,0.816,0.816,0,0,0,.28.6,6.874,6.874,0,0,0,5.1,2.07,45.12,45.12,0,0,0,6.91-.78c0,1.79.04,3.63,0.04,5.65,0,5.53-.6,8.79-2.16,11.51-1.66,2.8-4.56,5.1-8.65,7.04a0.643,0.643,0,0,0-.46.55,0.555,0.555,0,0,0,.51.55,2.819,2.819,0,0,0,.96-0.23c4.56-1.61,7.64-3.64,9.62-6.63,1.79-2.71,2.57-6.25,2.57-10.99,0-2.81-.09-5.57-0.09-7.91,2.39-.42,4.56-0.69,6.58-0.97,1.06-.14,1.52-0.37,1.52-1.33,0-.74-1.01-1.38-2.35-1.38a3.108,3.108,0,0,0-1.65.5,5.746,5.746,0,0,1-1.61.6C2299.41,2973.33,2298.68,2973.47,2297.71,2973.66Zm-19.6,16.83c0.6-2.48,1.29-5.06,2.4-9.11a0.488,0.488,0,0,0-.37-0.69,0.772,0.772,0,0,0-.69.6c-1.34,3.41-2.49,6.67-3.27,8.97-0.23.65-.74,0.6-0.92-0.13a18.8,18.8,0,0,1-.55-4.37,37.34,37.34,0,0,1,1.98-11.83c0.09-.32.36-1.01,0.46-1.29a5.475,5.475,0,0,0,.46-1.79,4.815,4.815,0,0,0-1.11-3.17c-0.69-.92-2.11-2.35-2.62-2.35-0.41,0-.6.14-0.6,0.32a0.87,0.87,0,0,0,.14.6,7.334,7.334,0,0,1,1.29,3.54,18.192,18.192,0,0,1-.28,3.08,86.374,86.374,0,0,0-1.61,12.43,22.021,22.021,0,0,0,1.89,9.56,2.507,2.507,0,0,0,1.98,1.66,1.208,1.208,0,0,0,1.19-1.38c0-.51-0.13-1.38-0.13-2.07A14.721,14.721,0,0,1,2278.11,2990.49Zm2.26,44.21c4-4.46,7.86-9.06,11.82-13.16a4.751,4.751,0,0,1,2.3-1.61,0.955,0.955,0,0,0,.88-0.96,3.334,3.334,0,0,0-1.57-1.98,4.428,4.428,0,0,0-2.25-1.01,1.232,1.232,0,0,0-.97.41,2.787,2.787,0,0,1-1.15.74c-1.89.55-4.05,1.19-6.16,1.65a13.6,13.6,0,0,1-2.63.37c-0.82,0-1.42-.41-2.2-1.43a1.018,1.018,0,0,0-.79-0.59,0.667,0.667,0,0,0-.41.73,5.124,5.124,0,0,0,1.24,2.76c1.06,1.29,1.84,1.61,2.58,1.61a1.645,1.645,0,0,0,1.15-.6,4.133,4.133,0,0,1,1.19-.59c2.3-.88,4.88-1.8,7.41-2.63,0.55-.18.74,0,0.41,0.42a223.824,223.824,0,0,1-16.7,19.5,2.553,2.553,0,0,0-.92,1.75,1.547,1.547,0,0,0,1.52,1.47,1.388,1.388,0,0,0,1.11-.5,30.146,30.146,0,0,1,3.22-3.64c3.13-2.8,6.76-4.73,10.9-4.73,3.45,0,7.22,2.02,7.22,7.45a8.856,8.856,0,0,1-6.25,7.91c-0.56-1.98-3.22-5.89-7.69-5.89-2.53,0-4.32,1.43-4.32,3.64,0,2.85,3.22,5.01,8.65,5.01,6.25,0,12.47-3.82,12.47-10.53,0-4.24-2.72-9.07-10.31-9.07-3.22,0-6.39,1.29-9.66,3.55Zm8.42,13.8a5.972,5.972,0,0,1-1.75.18c-4.51,0-6.26-1.79-6.26-3.12,0-1.06.74-2.07,2.49-2.07C2285.34,3043.49,2288,3045.83,2288.79,3048.5Zm8.78,44.25c-0.27-4.32-.36-9.29-0.36-13.94a44.538,44.538,0,0,0,6.16-1.61c0.87-.32,1.33-0.64,1.33-1.33a1.427,1.427,0,0,0-1.61-1.11,4.208,4.208,0,0,0-2.3.51,7.734,7.734,0,0,1-1.38.69,21.215,21.215,0,0,1-2.25.6c0-1.47.05-2.95,0.14-4.46a2.742,2.742,0,0,1,.6-1.89,1.348,1.348,0,0,0,.55-1.01c0-.88-1.15-1.61-1.93-1.98a8.4,8.4,0,0,0-3.18-.83c-0.97,0-1.79.55-1.79,1.01,0,0.37.13,0.46,0.59,0.46a3.337,3.337,0,0,1,2.17.56c0.37,0.27.55,0.59,0.6,1.74,0.09,1.98.18,4.7,0.18,6.81a48.525,48.525,0,0,1-7.45.69,4.1,4.1,0,0,1-3.59-1.75,0.978,0.978,0,0,0-.69-0.55,0.451,0.451,0,0,0-.42.42,2.4,2.4,0,0,0,.14.69,4.9,4.9,0,0,0,4.83,3.22,52.813,52.813,0,0,0,7.23-.51c0.04,4.28.09,8.6,0.13,12.84a18.881,18.881,0,0,0-4.37-.51c-4.23,0-6.48,1.89-6.48,4.28,0,2.71,2.76,4.46,6.44,4.46,4.78,0,6.67-2.76,6.67-5.06a37.6,37.6,0,0,1,5.24,3.5,2.165,2.165,0,0,0,1.61.5,1.289,1.289,0,0,0,1.01-1.42,2.152,2.152,0,0,0-.78-1.29A27.158,27.158,0,0,0,2297.57,3092.75Zm-2.39,1.47c0,2.67-1.79,4.05-4.69,4.05-3.36,0-4.65-1.06-4.65-2.62,0-1.66,2.03-2.44,4.1-2.44A14.658,14.658,0,0,1,2295.18,3094.22Zm-21.48-5.52a40.865,40.865,0,0,1,2.76-13.52,5.528,5.528,0,0,1,.73-1.57,2.269,2.269,0,0,0,.65-1.51,4.909,4.909,0,0,0-.92-2.99,7.3,7.3,0,0,0-1.94-2.12,1.672,1.672,0,0,0-.92-0.46,0.514,0.514,0,0,0-.55.46,1.082,1.082,0,0,0,.23.55,6.077,6.077,0,0,1,1.06,3.27,15.589,15.589,0,0,1-.74,4.05,61.408,61.408,0,0,0-2.25,14.72c0,3.31.28,7.77,1.75,10.58a1.746,1.746,0,0,0,1.56,1.2,1.056,1.056,0,0,0,1.06-1.25c0-.92-0.05-1.84-0.05-2.76a11.606,11.606,0,0,1,.42-2.34c0.41-2.03,1.7-6.17,2.58-9.25a1.873,1.873,0,0,0,.09-0.46,0.544,0.544,0,0,0-.42-0.6,0.686,0.686,0,0,0-.59.51c-1.06,2.57-2.54,6.53-3.46,9.29a0.345,0.345,0,0,1-.36.28c-0.19,0-.28-0.14-0.42-0.83A34.577,34.577,0,0,1,2273.7,3088.7Z" transform="translate(-2171.41 -2597.25)"/>
</svg>
